# xmcd
#
# Track frame offsets:
#	150
#	17987
#	56392
#	80917
#	107455
#	120782
#	135047
#	166585
#	183792
#	224122
#	255267
#	294920
#
# Disc length: 4109 seconds
#
# Revision: 1
# Processed by: cddbd v1.5.2PL0 Copyright (c) Steve Scherf et al.
# Submitted via: audiograbber 1.83.01
#
DISCID=90100b0c
DTITLE=Die Strebersdorfer Buam - Grand Prix der Parodie
DYEAR=1991
DGENRE=Cabaret
TTITLE0=Begrüssungslied and Witze
TTITLE1=Kufstein and Witze
TTITLE2=Hydrant and Witze
TTITLE3=Strada del Gürtel and Witze
TTITLE4=Mia mit de grauen Janka
TTITLE5=Banane
TTITLE6=Waluliso and Witze
TTITLE7=Ein Bett im Kornfeld and Witze
TTITLE8=Levkojen
TTITLE9=Das ist Italien and Witze
TTITLE10=Keine Sterne in Athen and Witze
TTITLE11=Bottimchim
EXTD=
EXTT0=
EXTT1=
EXTT2=
EXTT3=mit Fredy Reithofer
EXTT4=mit Fredy Reithofer
EXTT5=
EXTT6=
EXTT7=
EXTT8=
EXTT9=
EXTT10=
EXTT11=
PLAYORDER=
